<svg width="25" height="16" viewBox="0 0 25 16" fill="none" xmlns="http://www.w3.org/2000/svg">
<path d="M24.4329 12.6255V12.3378H24.3579L24.2712 12.5354L24.1849 12.3378H24.1094V12.6255H24.1627V12.4086L24.2438 12.5958H24.299L24.3801 12.4081V12.6255H24.4329ZM23.9571 12.6255V12.3869H24.0533V12.3383H23.8081V12.3869H23.9043V12.6255H23.9571Z" fill="#F79410"/>
<path d="M15.9073 13.8632H9.41797V2.20068H15.9073V13.8632Z" fill="#FF5F00"/>
<path d="M9.83353 8.03066C9.83353 5.66487 10.9412 3.55749 12.6662 2.19942C11.4048 1.20632 9.81278 0.613576 8.08265 0.613576C3.98672 0.613576 0.666504 3.93427 0.666504 8.03066C0.666504 12.1271 3.98672 15.4478 8.08265 15.4478C9.81278 15.4478 11.4048 14.855 12.6662 13.8619C10.9412 12.5038 9.83353 10.3965 9.83353 8.03066Z" fill="#EB001B"/>
<path d="M24.6593 8.03066C24.6593 12.1271 21.3391 15.4478 17.2432 15.4478C15.513 15.4478 13.9211 14.855 12.6592 13.8619C14.3846 12.5038 15.4923 10.3965 15.4923 8.03066C15.4923 5.66487 14.3846 3.55749 12.6592 2.19942C13.9211 1.20632 15.513 0.613576 17.2432 0.613576C21.3391 0.613576 24.6593 3.93427 24.6593 8.03066Z" fill="#F79E1B"/>
</svg>