<svg width="48" height="16" viewBox="0 0 48 16" fill="none" xmlns="http://www.w3.org/2000/svg">
<g clip-path="url(#clip0)">
<path d="M20.9353 15.268H17.167L19.524 0.763184H23.292L20.9353 15.268Z" fill="#00579F"/>
<path d="M34.5954 1.11753C33.8521 0.824044 32.6732 0.5 31.2155 0.5C27.4942 0.5 24.8737 2.47502 24.8576 5.29872C24.8267 7.38203 26.7338 8.53915 28.1602 9.23379C29.6181 9.94361 30.1137 10.4069 30.1137 11.0396C30.0988 12.0113 28.9356 12.4593 27.8507 12.4593C26.3462 12.4593 25.5401 12.2283 24.315 11.6877L23.8188 11.456L23.2915 14.712C24.1753 15.1127 25.8036 15.4683 27.4942 15.4839C31.4481 15.4839 34.0223 13.5395 34.0528 10.5304C34.0678 8.87919 33.0608 7.61399 30.8897 6.58012C29.5717 5.91645 28.7646 5.46894 28.7646 4.78989C28.78 4.17256 29.4473 3.54027 30.935 3.54027C32.1601 3.5093 33.0602 3.80237 33.742 4.09565L34.0829 4.24968L34.5954 1.11753Z" fill="#00579F"/>
<path d="M39.6041 10.1295C39.9144 9.29619 41.1086 6.07114 41.1086 6.07114C41.0929 6.10211 41.4183 5.22247 41.6044 4.68247L41.8677 5.93229C41.8677 5.93229 42.5813 9.40427 42.7363 10.1295C42.1473 10.1295 40.3484 10.1295 39.6041 10.1295ZM44.2556 0.763184H41.3408C40.442 0.763184 39.7591 1.02529 39.3712 1.96666L33.7739 15.2678H37.7279C37.7279 15.2678 38.3788 13.4776 38.5188 13.092C38.9525 13.092 42.7989 13.092 43.3569 13.092C43.4651 13.6013 43.8066 15.2678 43.8066 15.2678H47.2957L44.2556 0.763184Z" fill="#00579F"/>
<path d="M14.0194 0.763184L10.329 10.6541L9.92574 8.6481C9.24346 6.33345 7.10369 3.81863 4.71582 2.56819L8.09609 15.2526H12.081L18.0041 0.763184H14.0194Z" fill="#00579F"/>
<path d="M6.90219 0.763184H0.839369L0.777344 1.05626C5.50672 2.25994 8.63889 5.16136 9.92576 8.64872L8.60778 1.98245C8.39079 1.05605 7.72397 0.793742 6.90219 0.763184Z" fill="#FAA61A"/>
</g>
<defs>
<clipPath id="clip0">
<rect width="46.5625" height="15" fill="white" transform="translate(0.777344 0.5)"/>
</clipPath>
</defs>
</svg>