<svg width="46" height="16" viewBox="0 0 46 16" fill="none" xmlns="http://www.w3.org/2000/svg">
<g clip-path="url(#clip0)">
<path fill-rule="evenodd" clip-rule="evenodd" d="M6.37605 0H11.286C15.769 0 16.8364 1.06738 16.8364 5.55037V10.4603C16.8364 14.9433 15.769 16.0107 11.286 16.0107H6.37605C1.89306 16.0107 0.825684 14.9433 0.825684 10.4603V5.55037C0.829953 1.06524 1.89733 0 6.37605 0Z" fill="#5B7FBE"/>
<path fill-rule="evenodd" clip-rule="evenodd" d="M13.9356 5.51184C14.0081 5.26421 13.9356 5.08489 13.5812 5.08489H12.4156C12.3065 5.07777 12.1981 5.10615 12.1065 5.1658C12.0149 5.22544 11.9451 5.31315 11.9075 5.41578C11.9075 5.41578 11.3141 6.85888 10.473 7.79603C10.2019 8.06928 10.078 8.15467 9.93075 8.15467C9.85603 8.15467 9.7493 8.06928 9.7493 7.82165V5.51184C9.7493 5.21511 9.66177 5.08489 9.41414 5.08489H7.58252C7.54522 5.08288 7.50789 5.08824 7.47267 5.10068C7.43745 5.11311 7.40503 5.13238 7.37727 5.15736C7.34951 5.18235 7.32694 5.21257 7.31088 5.24629C7.29482 5.28001 7.28556 5.31657 7.28365 5.35387C7.28365 5.63566 7.7106 5.6997 7.74903 6.48956V8.19737C7.74903 8.57522 7.68072 8.64353 7.53555 8.64353C7.14062 8.64353 6.17785 7.18976 5.61427 5.52892C5.50327 5.20444 5.39012 5.07422 5.09126 5.07422H3.91501C3.58198 5.07422 3.51367 5.23219 3.51367 5.40511C3.51367 5.71251 3.91074 7.24527 5.35597 9.27329C6.32088 10.6587 7.67858 11.408 8.91461 11.408C9.6575 11.408 9.7493 11.2415 9.7493 10.9555V9.91585C9.7493 9.58283 9.81761 9.51665 10.0546 9.51665C10.2275 9.51665 10.5242 9.60417 11.2159 10.2702C12.0057 11.0622 12.136 11.4166 12.5821 11.4166H13.7498C14.085 11.4166 14.2515 11.2501 14.1554 10.9213C14.0594 10.5926 13.6708 10.1187 13.1713 9.55294C12.8981 9.23273 12.4903 8.8869 12.3665 8.71398C12.1936 8.5005 12.2427 8.39163 12.3665 8.19523C12.3644 8.19523 13.7861 6.19283 13.9356 5.51184Z" fill="white"/>
<path d="M30.0527 8.08221C30.0527 10.313 28.4004 11.9632 26.5026 11.9632C25.7722 11.9653 25.0668 11.6977 24.5215 11.2118V14.5142H22.6216V4.26741H24.0263L24.355 5.02097C24.9457 4.49216 25.7098 4.19823 26.5026 4.19482C28.4004 4.20336 30.0527 5.85353 30.0527 8.08221ZM26.2549 10.1444C27.3223 10.1444 28.1527 9.32037 28.1527 8.08008C28.1527 6.83979 27.3287 6.01791 26.2549 6.01791C25.1812 6.01791 24.355 6.84192 24.355 8.08008C24.355 9.31824 25.1812 10.1444 26.2549 10.1444Z" fill="#5B7FBE"/>
<path d="M37.3278 7.17489V11.8714H35.9252L35.5943 11.1285C35.0043 11.657 34.241 11.9509 33.4489 11.9546C31.7966 11.9546 30.8872 11.0473 30.8872 9.81985C30.8872 8.32552 31.9546 7.25814 35.4278 7.25814C35.4278 6.43199 34.9326 5.93673 34.1897 5.93673C33.9305 5.91686 33.6727 5.98873 33.4612 6.13975C33.2497 6.29077 33.098 6.51134 33.0326 6.76288H31.1348C31.2992 5.35821 32.4541 4.20117 34.3541 4.20117C36.0896 4.20331 37.3278 5.44787 37.3278 7.17489ZM35.43 8.90831V8.57742C33.2013 8.57742 32.7871 8.99157 32.7871 9.6448C32.7871 10.0589 33.2013 10.471 33.7777 10.471C34.7682 10.4774 35.43 9.81772 35.43 8.90831Z" fill="#5B7FBE"/>
<path d="M37.7466 4.28418H39.7276L41.6254 9.23895L43.361 4.28418H45.3442C45.3442 4.28418 42.4537 11.7153 42.2893 12.1273C41.5464 13.9439 40.8847 14.6057 39.6465 14.6057C39.4243 14.6017 39.2031 14.5737 38.9869 14.5225V12.9534C39.3108 12.9787 39.6338 12.8949 39.9046 12.7155C40.1754 12.536 40.3783 12.2711 40.4812 11.9629L40.6456 11.5509L37.7466 4.28418Z" fill="#5B7FBE"/>
</g>
<defs>
<clipPath id="clip0">
<rect width="44.5118" height="16" fill="white" transform="translate(0.830078)"/>
</clipPath>
</defs>
</svg>