<svg width="14" height="24" viewBox="0 0 14 24" fill="none" xmlns="http://www.w3.org/2000/svg">
<path d="M1.80236 10.2684L1.767 10.233L1.80236 10.2684L10.9185 1.15147C11.3871 0.682843 12.1469 0.682843 12.6155 1.15147C13.0526 1.58851 13.082 2.27886 12.7039 2.75L12.6146 2.84948L3.49865 11.9646L3.46329 12L3.49865 12.0354L12.6146 21.1505L12.7039 21.25C13.082 21.7211 13.0526 22.4115 12.6155 22.8485C12.1469 23.3172 11.3871 23.3172 10.9185 22.8485L1.80236 13.7316L1.767 13.767L1.80236 13.7316L0.742462 12.6718C0.371464 12.3008 0.371464 11.6992 0.742462 11.3282L1.80236 10.2684Z" fill="white" stroke="#F9F9F9" stroke-width="0.1"/>
</svg>