<svg width="28" height="29" viewBox="0 0 28 29" fill="none" xmlns="http://www.w3.org/2000/svg">
<path d="M17.3733 3.5C23.5333 3.5 25 4.96667 25 11.1267V17.8733C25 24.0333 23.5333 25.5 17.3733 25.5H10.6267C4.46667 25.5 3 24.0333 3 17.8733V11.1267C3 4.96667 4.46667 3.5 10.6267 3.5H17.3733ZM8.72919 10.375H7.12503C6.66669 10.375 6.57502 10.5908 6.57502 10.8287C6.57502 11.2536 7.11887 13.361 9.10727 16.1481C10.4329 18.0515 12.3005 19.0833 14 19.0833C15.0197 19.0833 15.1459 18.8542 15.1459 18.4594V17.0208C15.1459 16.5625 15.2425 16.471 15.5654 16.471C15.8033 16.471 16.2112 16.59 17.1629 17.5077C18.2506 18.5954 18.4299 19.0833 19.0417 19.0833H20.6459C21.1042 19.0833 21.3334 18.8542 21.2012 18.4019C21.0565 17.9512 20.5372 17.2972 19.8481 16.522C19.4742 16.0801 18.9134 15.6043 18.7434 15.3663C18.5055 15.0605 18.5735 14.9245 18.7434 14.6526L18.772 14.6121C19.0137 14.2685 20.7124 11.8326 20.9018 10.9647C21.0037 10.6248 20.9018 10.375 20.4167 10.375H18.8125C18.4046 10.375 18.2166 10.5908 18.1146 10.8287C18.1146 10.8287 17.2988 12.8171 16.1432 14.1087C15.7693 14.4826 15.5993 14.6016 15.3954 14.6016C15.2934 14.6016 15.1458 14.4826 15.1458 14.1427V10.9647C15.1458 10.5568 15.0275 10.375 14.6875 10.375H12.1667C11.9118 10.375 11.7585 10.5643 11.7585 10.7437C11.7585 11.1304 12.3363 11.2196 12.3959 12.3073V14.6696C12.3959 15.1875 12.3023 15.2814 12.0984 15.2814C11.5546 15.2814 10.2317 13.2841 9.44715 10.9986C9.29339 10.5544 9.13917 10.375 8.72919 10.375Z" fill="white"/>
</svg>